<svg width="24.000000" height="24.000000" viewBox="0 0 24 24" fill="none" xmlns="http://www.w3.org/2000/svg" xmlns:xlink="http://www.w3.org/1999/xlink">
	<desc>
			Created with Pixso.
	</desc>
	<defs/>
	<path id="Vector" d="M12 0C13.5913 0 15.1174 0.63208 16.2427 1.75732C17.3679 2.88257 18 4.40869 18 6C18 7.59131 17.3679 9.11743 16.2427 10.2427C15.1174 11.3679 13.5913 12 12 12C10.4087 12 8.88257 11.3679 7.75732 10.2427C6.63208 9.11743 6 7.59131 6 6C6 4.40869 6.63208 2.88257 7.75732 1.75732C8.88257 0.63208 10.4087 0 12 0ZM12 15C18.6299 15 24 17.6851 24 21L24 24L0 24L0 21C0 17.6851 5.37012 15 12 15Z" fill="#000000" fill-opacity="1.000000" fill-rule="nonzero"/>
</svg>
