<svg width="20.000000" height="17.857178" viewBox="0 0 20 17.8572" fill="none" xmlns="http://www.w3.org/2000/svg" xmlns:xlink="http://www.w3.org/1999/xlink">
	<desc>
			Created with Pixso.
	</desc>
	<defs/>
	<path id="Vector" d="M11.5 13.8889L2 13.8889L2 7.93652L12.3 7.93652C13.3 6.74609 14.8 5.95239 16.5 5.95239C17.8 5.95239 19 6.44849 20 7.24194L20 1.98413C20 1.45801 19.7893 0.953125 19.4143 0.581055C19.0391 0.208984 18.5305 0 18 0L2 0C1.46948 0 0.960938 0.208984 0.585693 0.581055C0.210693 0.953125 0 1.45801 0 1.98413L0 13.8889C0 14.415 0.210693 14.9197 0.585693 15.292C0.960938 15.6641 1.46948 15.873 2 15.873L12.6001 15.873C12.2 15.2778 11.8 14.5833 11.5 13.8889ZM2 1.98413L18 1.98413L18 3.96826L2 3.96826L2 1.98413ZM16.5 7.93652C14.6001 7.93652 13 9.52393 13 11.4087C13 13.988 16.5 17.8572 16.5 17.8572C16.5 17.8572 20 13.988 20 11.4087C20 9.52393 18.3999 7.93652 16.5 7.93652ZM16.5 12.6985C15.8 12.6985 15.3 12.1033 15.3 11.5081C15.3 10.8135 15.8999 10.3174 16.5 10.3174C17.1001 10.3174 17.7 10.9126 17.7 11.5081C17.8 12.1033 17.2 12.6985 16.5 12.6985Z" fill="#BDBDBD" fill-opacity="1.000000" fill-rule="nonzero"/>
</svg>
