<svg width="24.000000" height="24.000000" viewBox="0 0 24 24" fill="none" xmlns="http://www.w3.org/2000/svg" xmlns:xlink="http://www.w3.org/1999/xlink">
	<desc>
			Created with Pixso.
	</desc>
	<defs/>
	<path id="Vector" d="M8.91431 0C11.2786 0 13.5459 0.939209 15.2175 2.61084C16.8894 4.28271 17.8286 6.55005 17.8286 8.91431C17.8286 11.1223 17.0195 13.1521 15.6892 14.7153L16.0593 15.0857L17.1428 15.0857L24 21.9429L21.9429 24L15.0857 17.1428L15.0857 16.0593L14.7153 15.6892C13.0979 17.0698 11.041 17.8284 8.91431 17.8286C6.55005 17.8286 4.28271 16.8894 2.61084 15.2175C0.939209 13.5459 0 11.2786 0 8.91431C0 6.55005 0.939209 4.28271 2.61084 2.61084C4.28271 0.939209 6.55005 0 8.91431 0ZM8.91431 2.74292C5.4856 2.74292 2.74292 5.4856 2.74292 8.91431C2.74292 12.3428 5.4856 15.0857 8.91431 15.0857C12.3428 15.0857 15.0857 12.3428 15.0857 8.91431C15.0857 5.4856 12.3428 2.74292 8.91431 2.74292Z" fill="#000000" fill-opacity="1.000000" fill-rule="nonzero"/>
</svg>
