<svg width="20.000000" height="20.000000" viewBox="0 0 20 20" fill="none" xmlns="http://www.w3.org/2000/svg" xmlns:xlink="http://www.w3.org/1999/xlink">
	<desc>
			Created with Pixso.
	</desc>
	<defs/>
	<path id="Vector" d="M14.4443 14L10 14L10 17L4.44434 12L10 7L10 10L14.4443 10L14.4443 14ZM10 2C10.2947 2 10.5774 2.10547 10.7856 2.29297C10.9941 2.48047 11.1111 2.73486 11.1111 3C11.1111 3.26514 10.9941 3.51953 10.7856 3.70703C10.5774 3.89453 10.2947 4 10 4C9.70532 4 9.42261 3.89453 9.21436 3.70703C9.00586 3.51953 8.88892 3.26514 8.88892 3C8.88892 2.73486 9.00586 2.48047 9.21436 2.29297C9.42261 2.10547 9.70532 2 10 2ZM17.7778 2L13.1333 2C12.6667 0.840088 11.4443 0 10 0C8.55566 0 7.33325 0.840088 6.8667 2L2.22217 2C1.63281 2 1.06763 2.21069 0.650879 2.58569C0.234131 2.96094 0 3.46948 0 4L0 18C0 18.5305 0.234131 19.0391 0.650879 19.4143C1.06763 19.7893 1.63281 20 2.22217 20L17.7778 20C18.3672 20 18.9324 19.7893 19.3491 19.4143C19.7659 19.0391 20 18.5305 20 18L20 4C20 3.46948 19.7659 2.96094 19.3491 2.58569C18.9324 2.21069 18.3672 2 17.7778 2Z" fill="#BDBDBD" fill-opacity="1.000000" fill-rule="nonzero"/>
</svg>
