<svg width="24.000000" height="20.399170" viewBox="0 0 24 20.3992" fill="none" xmlns="http://www.w3.org/2000/svg" xmlns:xlink="http://www.w3.org/1999/xlink">
	<desc>
			Created with Pixso.
	</desc>
	<defs/>
	<path id="Vector" d="M22.7988 4.7998L6.5542 4.7998L4.69189 0.703125C4.59644 0.493652 4.44287 0.315674 4.24927 0.191162C4.05542 0.0664062 3.83008 0 3.59985 0L0 0L0 2.3999L2.82715 2.3999L8.50757 14.896C8.60303 15.1057 8.75659 15.2834 8.9502 15.4082C9.1438 15.533 9.36914 15.5991 9.59961 15.5994L19.1992 15.5994C19.6792 15.5994 20.1135 15.3137 20.3018 14.8721L23.9016 6.47241C23.9805 6.29004 24.0127 6.09082 23.9954 5.89282C23.978 5.69482 23.9116 5.50415 23.8022 5.33813C23.6929 5.17212 23.5439 5.03613 23.3687 4.94214C23.1936 4.84814 22.9978 4.79907 22.7988 4.7998Z" fill="#000000" fill-opacity="1.000000" fill-rule="nonzero"/>
	<path id="Vector" d="M11.9995 18.5991C11.9995 19.5933 11.1936 20.3992 10.1995 20.3992C9.20557 20.3992 8.39966 19.5933 8.39966 18.5991C8.39966 17.6052 9.20557 16.7993 10.1995 16.7993C11.1936 16.7993 11.9995 17.6052 11.9995 18.5991Z" fill="#000000" fill-opacity="1.000000" fill-rule="evenodd"/>
	<path id="Vector" d="M20.3992 18.5991C20.3992 19.5933 19.5933 20.3992 18.5991 20.3992C17.6052 20.3992 16.7993 19.5933 16.7993 18.5991C16.7993 17.6052 17.6052 16.7993 18.5991 16.7993C19.5933 16.7993 20.3992 17.6052 20.3992 18.5991Z" fill="#000000" fill-opacity="1.000000" fill-rule="evenodd"/>
</svg>
