<svg width="24.000000" height="22.800049" viewBox="0 0 24 22.8" fill="none" xmlns="http://www.w3.org/2000/svg" xmlns:xlink="http://www.w3.org/1999/xlink">
	<desc>
			Created with Pixso.
	</desc>
	<defs/>
	<path id="Vector" d="M12 18.324L19.416 22.8L17.448 14.364L24 8.68799L15.3721 7.94409L12 0L8.62793 7.94409L0 8.68799L6.54004 14.364L4.58398 22.8L12 18.324Z" fill="#333333" fill-opacity="1.000000" fill-rule="nonzero"/>
	<path id="Vector" d="M12 18.324L18.2209 22.0786L19.416 22.8L19.0989 21.4407L17.448 14.364L22.9463 9.60083L24 8.68799L22.6111 8.56812L15.3721 7.94409L12.5432 1.27954L12 0L11.4568 1.27954L8.62793 7.94409L1.3877 8.56836L0 8.68799L6.54004 14.364L4.89893 21.4419L4.58398 22.8L5.77759 22.0796L12 18.324ZM6.09253 20.7214L12 17.156L17.9038 20.7192L16.3369 14.0034L21.5574 9.48096L14.6865 8.88867L12 2.55933L9.31348 8.88867L2.4397 9.48145L7.65015 14.0034L6.09253 20.7214Z" fill="#000000" fill-opacity="1.000000" fill-rule="evenodd"/>
</svg>
