<svg width="20.000000" height="20.000000" viewBox="0 0 20 20" fill="none" xmlns="http://www.w3.org/2000/svg" xmlns:xlink="http://www.w3.org/1999/xlink">
	<desc>
			Created with Pixso.
	</desc>
	<defs/>
	<path id="Vector" d="M10 16.0737L14.9878 19.2427L16.1799 20L15.8745 18.6211L14.54 12.6L18.9985 8.5343L20 7.62109L18.6501 7.49854L12.8101 6.96838L10.5391 1.33691L10 0L9.46094 1.33691L7.18994 6.96838L1.34863 7.49866L0 7.62109L5.44995 12.6L4.12354 18.6224L3.82007 20L5.0105 19.2435L10 16.0737ZM5.31396 17.8661L10 14.8889L14.6824 17.8638L13.4385 12.2512L17.6489 8.41174L12.1111 7.90906L10 2.67395L7.88892 7.90906L2.34839 8.41199L6.55078 12.2512L5.31396 17.8661Z" fill="#000000" fill-opacity="1.000000" fill-rule="evenodd"/>
</svg>
